<?xml version="1.0" encoding="utf-8"?>
<!DOCTYPE svg PUBLIC "-//W3C//DTD SVG 1.0//EN" "http://www.w3.org/TR/2001/REC-SVG-20010904/DTD/svg10.dtd">
<svg version="1.0" xmlns="http://www.w3.org/2000/svg" width="1536px" height="1024px" viewBox="0 0 1536 1024" preserveAspectRatio="xMidYMid meet">
 <g fill="#fffefa">
  <path d="M0 512 l0 -512 768 0 768 0 0 512 0 512 -768 0 -768 0 0 -512z m511.1 184.7 c6.9 -3.3 13.2 -9.9 16.7 -17.5 l2.7 -5.7 0 -150.5 0 -150.5 -2.7 -5.7 c-3.2 -6.9 -9.7 -13.6 -16.3 -16.9 -5 -2.4 -5.1 -2.4 -41.1 -2.7 l-36.2 -0.3 -1.2 -4.7 c-3.3 -13.3 -15 -27.8 -27.9 -34.6 -18 -9.4 -36 -8.3 -53.6 3.5 -10.9 7.3 -19.6 19.3 -22.6 31.2 l-1.1 4.6 -36.2 0.3 -36.1 0.3 -5 2.7 c-6.2 3.2 -12.9 10.3 -15.8 16.6 l-2.2 4.7 -0.3 148 c-0.2 109 0 149.5 0.8 153.5 0.7 3 2.3 7.4 3.6 9.6 3.3 5.8 11.6 12.9 17.7 15.3 5.1 2 7.2 2 128.2 1.8 l123 -0.2 5.6 -2.8z m91.1 -30.9 c0.4 -21.1 0.1 -23.8 -2.3 -23.8 -1.8 0 -1.9 1 -1.9 20 0 19.1 0.1 20 1.9 20 1.8 0 2 -1 2.3 -16.2z m28.8 3 c0 -7.3 -0.5 -15 -1 -17 -2 -7 -11.1 -12 -16 -8.8 -1.1 0.7 -0.3 1 2.8 1 3.5 0 5 0.6 7.3 2.9 l2.9 2.9 0 16.1 c0 15.4 0.1 16.1 2 16.1 1.9 0 2 -0.7 2 -13.2z m38.1 11.5 c0.6 -0.6 -1.3 -0.8 -5.3 -0.5 -11.6 0.9 -15.8 -3.9 -15.8 -17.9 0 -13.5 3.6 -17.9 14.8 -17.9 10.3 0 13.2 4 13.2 18.3 0 8.5 -0.3 9.8 -2.6 13.3 l-2.6 3.9 2.7 -2.5 c10.2 -9.2 7.7 -27.1 -4.7 -33.6 -9.2 -4.8 -21.2 2.3 -23.9 14 -2.8 12.7 6.7 25.3 18.4 24.3 2.7 -0.2 5.2 -0.8 5.8 -1.4z m66.9 0.1 c0.6 -0.6 -1.7 -0.8 -5.9 -0.6 -6.4 0.4 -7 0.2 -10 -2.4 -6.6 -6 -6.7 -24.7 -0.1 -30.6 2.7 -2.5 3.8 -2.8 9.6 -2.8 6.4 0 6.8 0.2 10.1 3.6 3.6 3.9 5.3 4.2 2.7 0.6 -1.9 -2.8 -8.7 -6.3 -12.3 -6.4 -1.4 -0.1 -4.7 0.8 -7.3 2 -6.5 2.9 -10 8.5 -10.5 17.2 -0.3 5.7 0 7.1 2.4 11.5 3.7 6.6 9 9.7 15.6 9.2 2.7 -0.2 5.2 -0.8 5.7 -1.3z m47.9 -1.7 c8.6 -5.7 11.1 -18.3 5.5 -27.3 -7.8 -12.6 -22.8 -12.3 -29.8 0.5 -9.7 17.9 8.1 37.5 24.3 26.8z m26.3 -12.9 c0.4 -21.1 0.1 -23.8 -2.3 -23.8 -1.8 0 -1.9 1 -1.9 20 0 19.1 0.1 20 1.9 20 1.8 0 2 -1 2.3 -16.2z m28.8 3.5 c0 -7.1 -0.5 -14.6 -1.1 -16.7 -2 -7.2 -8.6 -11.7 -14.6 -10 -2.6 0.7 -2.4 0.8 2.2 1.5 3.5 0.6 5.7 1.6 7.3 3.4 2.1 2.5 2.2 3.5 2.2 18.6 0 15.2 0.1 15.9 2 15.9 1.9 0 2 -0.7 2 -12.7z m30 11.7 c0 -0.5 -1.2 -1 -2.7 -1 -1.4 0 -3.5 -0.7 -4.5 -1.7 -1.6 -1.4 -1.8 -3.4 -1.8 -18 l0 -16.3 4.5 0 c2.5 0 4.5 -0.4 4.5 -1 0 -0.5 -2 -1 -4.5 -1 l-4.5 0 0 -5.5 c0 -4.8 -0.2 -5.5 -2 -5.5 -1.8 0 -2 0.7 -2 5.5 0 5.4 0 5.5 -3 5.5 -1.6 0 -3 0.5 -3 1 0 0.6 1.4 1 3 1 l3 0 0 14.1 c0 15.6 0.9 19.2 5.8 22.1 3 1.9 7.2 2.4 7.2 0.8z m17 -14.1 c0 -8.4 0.5 -15.9 1 -17 0.7 -1.3 0.7 -1.9 0 -1.9 -0.5 0 -1 -1.3 -1 -3 0 -2.3 -0.4 -3 -2 -3 -1.9 0 -2 0.7 -2 20 0 19.3 0.1 20 2 20 1.9 0 2 -0.7 2 -15.1z m48.1 13.4 c0.6 -0.6 -1.3 -0.8 -5.3 -0.5 -11.4 0.8 -15.8 -4.1 -15.8 -17.8 0 -8.6 2.2 -14.5 6.1 -16.5 4.2 -2.2 14.1 -2 17.1 0.5 4 3.1 5 6.9 4.6 17.4 -0.2 8.1 -0.7 9.9 -2.7 12.8 l-2.4 3.3 2.8 -2.5 c6.2 -5.5 8.2 -15.7 4.6 -23.5 -2 -4.6 -7.9 -10.2 -11.7 -11.1 -10.9 -2.8 -22 7.1 -21.8 19.6 0.1 11.8 8.4 20.6 18.7 19.7 2.7 -0.2 5.2 -0.8 5.8 -1.4z m27.9 -26.8 c0 -27.8 0 -28.5 -2 -28.5 -2 0 -2 0.7 -2 27.8 0 15.3 0.3 28.2 0.7 28.5 0.3 0.4 1.2 0.7 2 0.7 1 0 1.3 -5.4 1.3 -28.5z m36.5 27.5 c1.4 -0.6 0.1 -0.9 -4.3 -0.9 -10.6 -0.1 -14.5 -3.9 -14.6 -14 l-0.1 -4.6 15.3 0.1 15.2 0.2 0 -2.7 c0 -3 -3.2 -10.5 -5 -11.6 -0.9 -0.6 -0.9 -0.3 -0.1 1.3 0.6 1.1 1.1 4.1 1.1 6.6 l0 4.6 -13.5 0 -13.5 0 0 -2.9 c0 -3.9 1.6 -8 4.3 -11.1 l2.2 -2.5 -2.8 2.5 c-4.5 3.9 -7.1 9.7 -7.1 16.1 -0.1 12.7 12.7 23.3 22.9 18.9z m29.2 -1.6 c0.8 -2.1 -1.3 -4.2 -2.8 -2.7 -1.3 1.3 -0.5 4.3 1.1 4.3 0.6 0 1.3 -0.7 1.7 -1.6z m-284.6 -5.6 c1.8 -3.3 -0.6 -1.7 -3 2 -2.3 3.6 -2.3 3.6 -0.1 1.7 1.2 -1.1 2.6 -2.8 3.1 -3.7z m157.9 -30.8 c0 -0.5 -0.9 -1 -1.9 -1 -1.1 0 -2.3 0.5 -2.6 1 -0.4 0.6 0.5 1 1.9 1 1.4 0 2.6 -0.4 2.6 -1z m98 0 c-0.8 -0.5 -3.5 -0.9 -6 -0.8 l-4.5 0.1 5 0.7 c2.8 0.4 5.5 0.7 6 0.8 0.6 0.1 0.3 -0.3 -0.5 -0.8z m-375.9 -47.1 c5.3 -1.6 9.7 -5.7 11.4 -10.4 1.1 -3.4 1.1 -4.5 -0.1 -7.5 -2.2 -5.1 -5.9 -7.7 -15.4 -10.6 -16 -4.8 -17 -5.6 -17 -14.2 0 -6.7 2.6 -9.7 9.4 -10.7 9.8 -1.5 18.6 2 18.6 7.5 0 1.3 0.7 2 2 2 2 0 2 -0.1 0.5 -3 -4.9 -9.5 -21.3 -11.7 -29.3 -3.9 -5.7 5.6 -6.4 10.8 -2.1 16.3 2.8 3.5 6.5 5.4 16.6 8.1 4.6 1.3 9.5 3 10.8 3.9 4.6 3 4.5 14.9 -0.2 18.6 -2.1 1.6 -4 2 -11 2 -10.1 0 -13.6 -1.5 -15.4 -6.5 -0.9 -2.3 -1.9 -3.5 -3.1 -3.5 -1.7 0 -1.7 0.2 -0.3 2.9 4 7.8 15 11.8 24.6 9z m49.3 -0.2 c2.7 -1.2 2.2 -1.2 -4.1 -0.9 -11.5 0.7 -16.3 -3.4 -16.3 -13.8 l0 -5 15.5 0 c8.5 0 15.5 -0.4 15.5 -0.8 0 -2.6 -3.3 -11.2 -4.7 -12.3 -1.5 -1.3 -1.5 -1.2 -0.5 0.8 0.7 1.2 1.2 4.2 1.2 6.7 l0 4.6 -13.6 0 -13.6 0 0.4 -5.5 c0.3 -4 1.1 -6.3 2.9 -8.3 l2.4 -2.7 -2.9 2.5 c-8.4 7.3 -8.8 21.9 -0.8 30.4 5 5.3 12.3 7 18.6 4.3z m40.6 -0.2 c2.4 -1.4 2.3 -1.4 -2.6 -1.5 -3.6 0 -5.9 -0.6 -7.5 -1.9 -2.3 -1.9 -2.4 -2.5 -2.7 -18.5 -0.3 -15.6 -0.4 -16.6 -2.3 -16.6 -1.8 0 -1.9 0.8 -1.9 13.8 0 15.8 1.5 20.7 7.2 24.2 3.9 2.3 6.4 2.5 9.8 0.5z m102.4 0.2 c2.5 -1.1 2 -1.2 -4.6 -0.9 -7.2 0.4 -7.7 0.3 -10.9 -2.6 -3 -2.7 -3.3 -3.6 -3.7 -9.6 l-0.4 -6.6 15.1 0 15.1 0 0 -2.7 c-0.1 -3.7 -3.2 -10.3 -6 -12.8 l-2.3 -2 2.3 3.2 c1.4 1.9 2.5 5.2 2.8 8.2 l0.5 5.1 -13.7 0 -13.6 0 0 -4.9 c0 -3.9 0.6 -5.7 2.7 -8.3 l2.7 -3.3 -2.8 2.5 c-6.8 6 -8.9 16.7 -4.8 24.5 4.9 9.6 13.5 13.6 21.6 10.2z m44.9 -0.1 c4 -1.7 7.3 -5.3 8.2 -8.8 0.6 -2.3 0.1 -3.4 -2.7 -6.2 -2.6 -2.6 -4.9 -3.7 -10.8 -5 -10.5 -2.4 -12 -3.6 -12 -9.3 0 -3 0.6 -5.4 1.8 -6.7 l1.7 -2.1 -2.4 2 c-1.2 1.1 -2.9 3.2 -3.6 4.6 -2.8 5.4 3.1 10.7 14.8 13.4 3.9 0.9 7.7 2.1 8.4 2.7 0.8 0.6 1.3 3.3 1.3 6.4 0 7 -1.9 8.4 -11.3 8.4 -6.3 0 -7.1 -0.2 -9.9 -3 -3.1 -3.2 -5.2 -3.4 -2.7 -0.4 2 2.5 8.9 5.4 12.7 5.4 1.8 0 4.7 -0.6 6.5 -1.4z m37.7 -0.1 c0 -1 -1.1 -1.5 -3.5 -1.5 -2.4 0 -3.7 -0.6 -4.5 -1.9 -0.6 -1.1 -1 -8.7 -1 -17.5 l0 -15.6 4.5 0 c2.5 0 4.5 -0.4 4.5 -1 0 -0.5 -2 -1 -4.5 -1 l-4.5 0 0 -6 c0 -5.3 -0.2 -6 -2 -6 -1.8 0 -2 0.7 -2 6 l0 6 -3 0 c-1.6 0 -3 0.5 -3 1 0 0.6 1.3 1 2.9 1 l3 0 0.3 14.9 c0.3 13.3 0.5 15.3 2.4 17.8 3.4 4.6 10.4 7.2 10.4 3.8z m27.5 0.5 c1.5 -0.7 0.9 -0.9 -2.5 -0.9 -2.5 -0.1 -5.6 -0.8 -6.9 -1.7 -2 -1.5 -2.2 -2.3 -1.9 -8 0.3 -6.9 -0.2 -7.7 -2.6 -4.2 -3.2 4.6 -1.3 10.2 4.8 13.9 3.3 2 5.9 2.3 9.1 0.9z m48.9 -1 c0.7 -0.7 -0.5 -1 -3.8 -1 -9.4 0 -10.6 -2.5 -10.6 -22.6 0 -12.1 -0.2 -14.4 -1.5 -14.4 -1.3 0 -1.5 2.2 -1.5 14.2 0 15.8 1.4 20.7 6.7 24.1 2.9 1.8 8.7 1.7 10.7 -0.3z m74.6 1 c1.1 -0.7 0.3 -1 -3 -1 -2.6 0 -5.6 -0.7 -6.9 -1.6 -2 -1.5 -2.2 -2.3 -1.9 -8 0.2 -3.5 0 -6.4 -0.4 -6.4 -1.4 0 -3.8 4.5 -3.8 7 0 6.8 10.6 13.5 16 10z m95 0 c0 -0.5 -1.6 -1.2 -3.5 -1.6 -2 -0.3 -4 -1.5 -4.5 -2.5 -0.6 -1 -1 -8.8 -1 -17.3 l0 -15.6 4.5 0 c2.5 0 4.5 -0.4 4.5 -1 0 -0.5 -2 -1 -4.5 -1 l-4.5 0 0 -6 c0 -5.3 -0.2 -6 -2 -6 -1.8 0 -2 0.7 -2 6 l0 6 -3 0 c-1.6 0 -3 0.5 -3 1 0 0.6 1.4 1 3 1 l3 0 0 13.5 c0 15.5 1.1 19.3 6.2 22.5 3.5 2.1 6.8 2.6 6.8 1z m33.5 0 c1.4 -0.6 0.3 -0.9 -4 -0.9 -3.3 -0.1 -7.1 -0.7 -8.4 -1.4 -3.5 -1.7 -6.1 -6.6 -6.8 -12.6 l-0.6 -5.1 16.1 0 16 0 -1 -4.2 c-1 -4.6 -3.8 -9.8 -6.5 -11.9 -1.1 -0.9 -0.9 -0.3 0.5 1.5 1.6 2.1 2.2 4.2 2.2 8.2 l0 5.4 -13 0 -13 0 0 -4.6 c0 -2.5 0.5 -5.5 1.1 -6.7 0.7 -1.5 0.2 -1.3 -1.5 0.8 -3.1 3.6 -4.8 10.8 -3.7 15.5 2.7 12.1 13.7 19.8 22.6 16z m-448.5 -19.5 c0 -18.8 -0.1 -19.5 -2 -19.5 -1.9 0 -2 0.7 -2 14.6 0 8.1 -0.5 15.4 -1 16.5 -0.8 1.5 -0.7 1.9 0.5 1.9 1 0 1.5 1 1.5 3 0 2 0.5 3 1.5 3 1.3 0 1.5 -2.8 1.5 -19.5z m39 5.1 c0 -8 0.4 -15.6 1 -17 0.6 -1.7 0.6 -2.6 0 -2.6 -0.6 0 -1 -1.1 -1 -2.5 0 -1.8 -0.5 -2.5 -2 -2.5 -1.9 0 -2 0.7 -2 19.5 0 18.8 0.1 19.5 2 19.5 1.9 0 2 -0.7 2 -14.4z m174 0.9 c0 -15.2 -0.9 -18.5 -5.9 -22.8 -6.1 -5.1 -15 -4.5 -20.6 1.3 -1.6 1.6 -2.5 3 -2 3 0.5 0 1.9 -1.2 3.1 -2.7 1.9 -2.4 3 -2.8 9.2 -3.1 6.5 -0.4 7.3 -0.2 9.6 2.1 2.2 2.2 2.6 3.5 2.6 8.2 0 4.5 -0.3 5.5 -1.7 5.6 -1.6 0.1 -1.6 0.2 0.1 0.6 1.6 0.4 1.8 1.4 1.4 8.4 -0.2 4.3 0 7.9 0.4 7.9 0.5 0 0.8 1.1 0.8 2.5 0 1.6 0.6 2.5 1.5 2.5 1.3 0 1.5 -2.2 1.5 -13.5z m47 -6 c0 -18.6 -0.1 -19.5 -1.9 -19.5 -1.8 0 -2 1 -2.3 16.3 -0.2 8.9 0 16.4 0.5 16.5 0.4 0.2 0.7 1.7 0.7 3.3 0 1.9 0.5 2.9 1.5 2.9 1.3 0 1.5 -2.8 1.5 -19.5z m20 5.1 c0 -8 0.4 -15.6 1 -17 0.6 -1.7 0.6 -2.6 0 -2.6 -0.6 0 -1 -1.1 -1 -2.5 0 -1.8 -0.5 -2.5 -2 -2.5 -1.9 0 -2 0.7 -2 19.5 0 18.8 0.1 19.5 2 19.5 1.9 0 2 -0.7 2 -14.4z m56 0.9 c0 -15.2 -0.9 -18.5 -5.9 -22.8 -6.1 -5.1 -15 -4.5 -20.6 1.3 -1.6 1.6 -2.5 3 -2 3 0.5 0 1.9 -1.2 3.1 -2.7 1.9 -2.4 3 -2.8 9.2 -3.1 6.5 -0.4 7.3 -0.2 9.6 2.1 2.2 2.2 2.6 3.5 2.6 8.2 0 5 -0.2 5.5 -2.2 5.6 -2.3 0.2 -2.3 0.2 0.1 0.6 2.2 0.5 2.3 0.7 1.9 8.4 -0.2 4.3 0 7.9 0.4 7.9 0.5 0 0.8 1.1 0.8 2.5 0 1.6 0.6 2.5 1.5 2.5 1.3 0 1.5 -2.2 1.5 -13.5z m20.2 -2.7 c0.2 -9 0 -16.4 -0.4 -16.6 -0.5 -0.2 -0.8 -1.7 -0.8 -3.3 0 -1.9 -0.5 -2.9 -1.5 -2.9 -0.8 0 -1.5 0.3 -1.5 0.8 0 0.4 -0.3 4.1 -0.6 8.2 -0.2 4.1 -0.2 12.6 0.2 18.8 0.6 10 0.8 11.2 2.5 11.2 1.7 0 1.8 -1.3 2.1 -16.2z m27.6 0.8 c-0.3 -17.3 -1 -19.2 -8.1 -23.1 -3.4 -1.8 -3.7 -1.8 -6.9 -0.3 l-3.3 1.7 4.6 0 c3.1 0.1 5.5 0.8 7.3 2.2 l2.6 2 0 16.5 c0 15.9 0.1 16.4 2.1 16.4 2 0 2 -0.4 1.7 -15.4z m-183 -5.3 c-1 -0.2 -2.8 -0.2 -4 0 -1.3 0.2 -0.5 0.4 1.7 0.4 2.2 0.1 3.2 -0.1 2.3 -0.4z m123 0 c-1 -0.2 -2.8 -0.2 -4 0 -1.3 0.2 -0.5 0.4 1.7 0.4 2.2 0.1 3.2 -0.1 2.3 -0.4z m-269.8 -17.8 c0 -1.8 -0.8 -1.8 -4 0 l-2.5 1.4 3.3 0.1 c2.2 0 3.2 -0.5 3.2 -1.5z m241 0 c0 -1.8 -0.8 -1.8 -4 0 l-2.5 1.4 3.3 0.1 c2.2 0 3.2 -0.5 3.2 -1.5z m-355.3 -0.7 c-2 -0.7 -3.9 -0.7 -6 0 -2.9 0.9 -2.7 1 2.8 1 5.3 0 5.7 -0.1 3.2 -1z m145.3 0.2 c-1.8 -1.2 -5.8 -1.2 -8.5 0 -1.4 0.6 -0.3 0.9 4 0.9 4.2 0.1 5.6 -0.2 4.5 -0.9z m42.9 -0.2 c-2.3 -0.6 -4.8 -0.6 -7 0 -3 0.9 -2.6 1 3.6 1 6.3 0 6.7 -0.1 3.4 -1z m318.8 0 c-2 -0.7 -3.9 -0.7 -6 0 -2.9 0.9 -2.7 1 2.8 1 5.3 0 5.7 -0.1 3.2 -1z m-436.6 -84.8 c16.6 -5.1 29 -19.4 32 -36.9 2.3 -12.8 -2.6 -27.6 -12.6 -38 -17.5 -18.3 -45.5 -18.3 -62.9 -0.1 -17.9 18.7 -17.1 46.9 1.7 64.8 11.7 11 27.2 14.8 41.8 10.2z m103 0.4 c16.3 -4.9 27.5 -16.2 31.9 -32.4 4.1 -15.1 -1.6 -33.9 -13.4 -44.8 -17.7 -16.3 -43.8 -16 -60.7 0.8 -6.5 6.5 -10.5 14.2 -12.6 24.8 -1.4 6.8 -1.4 8.3 0 15.5 1.9 9.5 5.3 16.8 10.7 23 10.8 12.2 28.8 17.6 44.1 13.1z m99.4 -1.3 c2.8 -1.2 6.7 -3.5 8.7 -5.1 2.3 -1.9 4.9 -3 6.7 -3 3 0 3.1 0.1 3.1 4.5 l0 4.5 9.5 0 9.5 0 0 -60.5 0 -60.5 -9.5 0 -9.5 0 0 21 0 21 -2.9 0 c-1.7 0 -5 -1.4 -7.6 -3.1 -14.4 -9.7 -31.7 -8.5 -44.8 3.1 -7.2 6.5 -11.3 14.7 -13.4 26.7 -1.3 7.9 -1.3 9.9 0 17.6 3.2 18.6 12.4 30.1 28.2 35.4 5.6 1.8 15.9 1.1 22 -1.6z m249 -0.6 c3 -1.4 6.3 -3.7 7.4 -5.1 1.3 -1.6 2.9 -2.4 5 -2.4 3 0 3.1 0.1 3.1 4.5 l0 4.5 9 0 9 0 0 -31 c0 -29.1 -0.1 -31.3 -2.1 -36.7 -8.1 -22 -40.9 -28.2 -59.4 -11.2 -4.6 4.3 -7.8 8.7 -9 12.7 -0.6 2.2 -0.5 2.2 7.7 2.2 l8.3 0 1.5 -3.2 c2.2 -4.7 7 -7 15.4 -7.5 9.2 -0.6 14.3 1.1 17.4 5.7 2 3 2.2 4.4 2 11.5 l-0.3 8 -15.5 0.6 c-27 1.2 -36.6 5.8 -40.6 19.5 -1.4 4.9 -1.4 5.9 0.1 11 4.8 16.6 24.8 24.9 41 16.9z m91 2.1 c14.4 -3.8 24.5 -14.9 24.5 -26.9 0 -12 -9 -19.5 -28 -23.2 -10.7 -2.1 -18 -4.3 -20.2 -6.3 -1.4 -1.1 -1.8 -3.1 -1.8 -7.9 0 -3.5 0.5 -7.3 1 -8.4 1.8 -3.3 6.4 -4.9 14.2 -4.9 8.6 0 12.9 2.1 15.5 7.5 l1.7 3.5 7.8 0 7.8 0 -2.4 -4.9 c-7 -13.7 -24.9 -20.9 -40.3 -16.3 -8.6 2.6 -14.4 6.7 -17.8 12.6 -6.2 10.5 -5.4 18.6 2.4 26.6 5.4 5.5 11.2 8 26.2 11 16.1 3.3 18.5 5.3 17.7 14.7 -0.4 4.2 -1.1 6 -3.2 8.1 -2.4 2.5 -3.4 2.7 -12 3 -10.9 0.4 -16.4 -1.5 -18.5 -6.6 -1.2 -2.8 -1.6 -2.9 -8.9 -3.5 -4.2 -0.3 -7.8 -0.4 -8.1 -0.2 -0.7 0.7 2 6.4 5 10.5 7.6 10.4 23.5 15.4 37.4 11.6z m-664.3 -17.3 c0.1 -9.3 0.1 -20.5 -0.1 -25 l-0.3 -8.3 25.6 0 25.6 0 0 -9.1 0 -9.1 -25.2 0.3 -25.3 0.4 -0.3 -17.3 -0.2 -17.2 29.5 0 29.5 0 0 -9 0 -9 -39.5 0 -39.5 0 0 60 0 60 10 0 10 0 0.2 -16.7z m477.7 13.2 c15.8 -5.4 27.5 -15.7 34.2 -30 4.7 -10.2 6.2 -16.9 6.2 -27.5 0.1 -22.7 -12 -43.4 -30.6 -52.4 -12.7 -6.2 -16.4 -6.9 -44.9 -7.3 l-25.8 -0.5 0 60.7 0 60.7 26.3 -0.4 c25.8 -0.4 26.3 -0.4 34.6 -3.3z m244.1 -25.2 c0 -26.3 0.2 -29.1 2 -32.8 4.3 -9 8.6 -11.5 19.5 -11.5 10 0 13.7 1.9 16.8 8.8 2.1 4.4 2.2 6.3 2.5 34.5 l0.3 29.7 9.5 0 9.4 0 0 -29.7 c0 -32.1 -0.5 -36.5 -5.3 -44.6 -3.3 -5.5 -6 -8 -12.7 -11.3 -7.9 -4 -17.2 -4 -25.2 -0.1 -3.1 1.5 -7 4.3 -8.7 6.2 -2.2 2.6 -3.9 3.5 -6.1 3.5 l-3 0 0 -22.5 0 -22.5 -9.5 0 -9.5 0 0 60.5 0 60.5 10 0 10 0 0 -28.7z"/>
  <path d="M767.5 679.1 c-5.8 -2.4 -8.7 -12.5 -6.7 -23.3 1.6 -8.9 4.2 -11.1 12.9 -11.6 5.9 -0.3 7.2 -0.1 9.7 1.9 4 3.1 5.6 7.7 5.6 15.9 0 12.7 -4.1 18 -13.9 17.9 -3.1 0 -6.5 -0.4 -7.6 -0.8z"/>
  <path d="M716.2 457.9 c-4.7 -1.4 -10.8 -8.1 -12.8 -14.2 -2.1 -6.3 -2.4 -23.1 -0.5 -29.2 3.4 -10.4 10.1 -15.5 21.5 -16.3 10 -0.6 15.1 1 20.7 6.7 6 6 7.4 10.5 7.4 24.6 -0.1 9.3 -0.4 11.8 -2.3 16 -4.7 10.2 -10.3 13.5 -22.7 13.4 -4.4 0 -9.5 -0.5 -11.3 -1z"/>
  <path d="M819 457.4 c-4.6 -2 -7.7 -5 -10.3 -9.9 -1.8 -3.3 -2.2 -6.2 -2.5 -16.5 -0.3 -10.9 -0.1 -13.2 1.8 -18.2 3.7 -10 11.2 -14.8 23 -14.8 8.4 0 13 1.7 17.6 6.5 5.7 5.9 7.4 11.5 7.4 24.6 0 15.7 -3.7 24 -12.4 28 -5.2 2.4 -19.4 2.6 -24.6 0.3z"/>
  <path d="M929 458.4 c-9.4 -1.8 -14.9 -6.8 -17.6 -16 -2.2 -7.7 -1.6 -26.3 1 -31.4 5 -9.5 10.1 -12.4 22.1 -12.4 10.6 0.1 14.9 1.7 19.9 7.5 4.2 5 5.6 9.4 6.3 20 1 14.6 -3.7 25.8 -12.8 30.5 -2.9 1.5 -14.7 2.6 -18.9 1.8z"/>
  <path d="M1173.5 460.6 c-5.2 -2.3 -6.9 -5.1 -7.3 -12.2 -0.8 -12.1 4.1 -15.2 25.8 -16.1 l14 -0.6 0 8.1 c0 11.9 -2.4 16.6 -10.5 20.3 -4.8 2.2 -17.4 2.5 -22 0.5z"/>
  <path d="M1054.3 449.9 c0.4 -3 0.7 -22.4 0.7 -43.2 l0 -37.9 17.8 0.4 c17 0.3 17.9 0.4 23.4 3.1 7 3.5 13 10 15.9 17.6 2.8 7 3.8 28.2 1.9 37 -2.6 11.9 -10.2 21.1 -20.9 25.2 -4.7 1.8 -8.3 2.3 -22.5 2.7 l-16.9 0.5 0.6 -5.4z"/>
 </g>
 <g fill="#132626">
  <path d="M251.3 700.9 c-6.1 -2.4 -14.4 -9.5 -17.7 -15.3 -1.3 -2.2 -2.9 -6.6 -3.6 -9.6 -0.8 -4.1 -1 -45.3 -0.8 -156.5 l0.3 -151 2.2 -4.7 c2.9 -6.3 9.6 -13.4 15.8 -16.6 l5 -2.7 36.1 -0.3 36.2 -0.3 1.1 -4.6 c4.2 -16.6 19.1 -32.3 36.2 -38.2 8.9 -3.1 23.2 -3.8 32.3 -1.7 19.5 4.6 37 21.3 41.6 39.8 l1.2 4.7 36.2 0.3 c36 0.3 36.1 0.3 41.1 2.7 6.6 3.3 13.1 10 16.3 16.9 l2.7 5.7 0 153.5 0 153.5 -2.7 5.7 c-3.5 7.6 -9.8 14.2 -16.7 17.5 l-5.6 2.8 -126 0.2 c-124 0.2 -126.1 0.2 -131.2 -1.8z m252.6 -23.8 c6.5 -4.7 6.1 5.2 6.1 -154.1 0 -142.3 0 -145.2 -2 -148.9 -1.3 -2.7 -3.3 -4.6 -6.3 -6 -3.9 -1.9 -6.1 -2.1 -21 -2.1 l-16.7 0 0 13.5 c0 9.5 -0.4 14.6 -1.4 17 -2.9 6.8 0.6 6.5 -81.3 6.5 -72 0 -73.9 -0.1 -77.1 -2 -1.8 -1.1 -3.7 -3.2 -4.2 -4.6 -0.6 -1.4 -1 -8.8 -1 -16.5 l0 -13.9 -16.7 0 c-15.4 0 -17.2 0.2 -21.2 2.3 -2.6 1.3 -5.2 3.6 -6.3 5.5 -1.7 3.2 -1.8 9.4 -1.6 150.6 0.3 145.8 0.3 147.4 2.3 149.6 1.1 1.3 3.4 3.1 5 4.1 2.9 1.8 7.5 1.9 121.5 1.7 l118.5 -0.3 3.4 -2.4z m-66.1 -305.8 l0.3 -5.3 -8.5 0 c-7.5 0 -8.8 -0.3 -11.2 -2.4 -2.4 -2 -2.9 -3.3 -3.5 -10 -1.4 -14.6 -10.5 -26 -24.4 -30.6 -20.1 -6.7 -40.9 8.2 -43.4 31 -0.6 6.2 -1.2 7.7 -3.5 9.7 -2.4 2 -3.8 2.3 -10.7 2.3 l-7.9 0 0 4.8 c0 2.7 0.3 5.2 0.7 5.5 0.3 0.4 25.7 0.6 56.2 0.5 l55.6 -0.3 0.3 -5.2z"/>
  <path d="M287.6 669.4 c-2.5 -2.4 -2.2 -12.8 0.4 -15.4 2 -2 3.3 -2 64.5 -2 61.2 0 62.5 0 64.5 2 1.5 1.5 2 3.3 2 7.8 0 10 5.6 9.2 -66.8 9.2 -56 0 -63.2 -0.2 -64.6 -1.6z"/>
  <path d="M287.7 643.2 c-2.5 -2.8 -2.3 -12.6 0.3 -15.2 2 -2 3.3 -2 92.9 -2 90.4 0 90.8 0 93.5 2.1 2.3 1.8 2.6 2.8 2.6 7.8 0 10 9.4 9.1 -95.7 9.1 -87.8 0 -92.1 -0.1 -93.6 -1.8z"/>
  <path d="M319.4 607.6 l-3.4 -3.4 0 -32.7 c0 -32.1 0 -32.7 -2 -33.2 -1.2 -0.3 -5.3 -2.1 -9.2 -4 -19.7 -9.4 -29.7 -30.8 -25.7 -55.3 3.3 -20.9 20.7 -37.4 41 -38.7 l8 -0.6 1.9 -3.6 c2.7 -5.3 10 -13.2 16.3 -17.5 8.9 -6.1 17.4 -8.7 30.4 -9.3 14 -0.7 21.3 0.6 32.1 5.8 9.2 4.4 18 12.3 22.7 20.3 2.7 4.6 2.7 4.6 8 4.6 2.9 0 8.1 0.9 11.4 1.9 12.5 3.9 21.8 12.2 28 25.1 3.3 7 3.5 8.1 3.9 19.6 0.4 10.4 0.1 13.3 -1.7 19.2 -2.7 8.9 -8.9 18.3 -15.5 23.2 -5.5 4.2 -15 9 -17.8 9 -1.7 0 -1.8 2.2 -1.8 33.1 l0 33.1 -3.4 3.4 -3.4 3.4 -58.2 0 -58.2 0 -3.4 -3.4z m99.9 -22.1 c-0.3 -1.2 -74 -1.9 -76.3 -0.8 -2.5 1.3 14.1 1.9 46 1.9 19.8 -0.1 30.4 -0.5 30.3 -1.1z m0.7 -47.2 c0.6 -23 0.7 -23.3 11.3 -24.3 3.4 -0.4 8 -1.5 10.2 -2.6 8.5 -4 15.5 -14.4 15.5 -22.8 0 -4.9 -4.3 -12.9 -9.1 -16.9 -5.7 -4.9 -11.8 -6.7 -21.1 -6.1 -9.7 0.7 -11.4 -0.4 -15.9 -9.4 -5.1 -10.4 -10.7 -15.6 -20.8 -19.6 -14.2 -5.5 -31.7 3.2 -39.5 19.9 -4.2 8.8 -5.8 9.6 -18.1 9.3 -7.6 -0.2 -9.6 0.1 -13.1 1.9 -8.6 4.6 -14.4 13.3 -14.4 21.7 0 12.2 13.4 24.6 26.6 24.6 3.7 0 5.1 0.5 7.5 2.9 l2.9 2.9 0 18.5 c0 13.9 0.3 18.7 1.3 19 0.6 0.3 18.1 0.5 38.7 0.4 l37.5 -0.2 0.5 -19.2z"/>
  <path d="M724.3 685 c-9.4 -2.2 -15.3 -10.2 -15.4 -21.2 -0.1 -8.7 0.8 -12.6 4 -17.3 7.7 -11.4 27.8 -10.5 33.8 1.4 1.2 2.4 2 4.8 1.7 5.2 -0.3 0.5 -2.3 0.9 -4.5 0.9 -3.3 0 -4.6 -0.6 -7.3 -3.5 -9.1 -9.6 -20.8 1.3 -17.5 16.5 0.7 3.5 1.9 5.7 4.1 7.5 4.8 4 11.5 2.9 14.6 -2.5 1.5 -2.7 2.2 -3 6.5 -3 4.6 0 4.8 0.1 4.1 2.3 -2.2 7.3 -7.1 11.9 -14.4 13.6 -5.1 1.2 -5.3 1.2 -9.7 0.1z"/>
  <path d="M769 684.6 c-2.5 -0.6 -5.6 -1.9 -6.8 -2.8 -12.5 -8.7 -11.5 -32.9 1.6 -40.6 6.2 -3.6 14.9 -3.7 21.2 -0.2 14.7 8.2 14.6 34.9 -0.2 41.8 -5.9 2.7 -10.5 3.3 -15.8 1.8z m11.5 -9.8 c10.3 -8.1 5.1 -29.1 -6.8 -27.5 -5.3 0.7 -8.4 3.9 -9.6 9.9 -1.3 5.7 0 13.2 2.7 16.2 3.7 4 9.6 4.7 13.7 1.4z"/>
  <path d="M989.5 685 c-6 -0.9 -10.6 -4 -14 -9.5 -2.7 -4.4 -3 -5.6 -3 -13.4 0 -12.8 4.5 -19.9 14.3 -22.7 14.5 -4.3 26.2 4.7 26.2 20.1 l0 5.6 -15.2 -0.3 c-14.8 -0.3 -15.3 -0.2 -15 1.7 1 6.7 5 10.5 11.2 10.5 3.7 0 8.5 -2.3 9.3 -4.5 0.5 -1 2 -1.5 5.2 -1.5 2.5 0 4.5 0.3 4.5 0.7 0 0.3 -1.1 2.5 -2.5 4.9 -3.8 6.4 -12.2 9.8 -21 8.4z m13.5 -29.5 c0 -3.4 -3 -7.4 -6.4 -8.5 -5.9 -1.9 -11.1 0.8 -13.5 7.3 l-1.1 2.7 10.5 0 c8.8 0 10.5 -0.2 10.5 -1.5z"/>
  <path d="M595 662 l0 -23 5 0 5 0 0 3.6 0 3.6 2.5 -3.1 c5.1 -6 14.2 -6.4 20.8 -1 4.9 4.1 5.7 7.6 5.7 26.7 l0 16.2 -5 0 -5 0 0 -16.1 0 -16.1 -3 -3 c-2.7 -2.6 -3.6 -3 -6.7 -2.5 -2.1 0.4 -4.8 1.8 -6.2 3.2 -2.5 2.5 -2.6 2.9 -2.9 18.5 l-0.3 16 -5 0 -4.9 0 0 -23z"/>
  <path d="M651.5 682.8 c-8.8 -5.1 -12.5 -16.8 -9.4 -29.3 3.9 -15.3 24.1 -20.4 35.1 -8.8 4.1 4.3 5.9 9.6 5.9 17.5 0 8.5 -2.7 14.7 -8.4 19.2 -3.4 2.8 -4.7 3.1 -11.5 3.4 -6.5 0.2 -8.3 -0.1 -11.7 -2z m14.9 -6.8 c4.2 -1.6 6.6 -6.6 6.6 -13.8 0 -9.4 -3.9 -15.2 -10.2 -15.2 -7.1 0 -11.8 6 -11.8 14.9 0 11 6.9 17.4 15.4 14.1z"/>
  <path d="M803 662 l0 -23 5 0 5 0 0 3.6 0 3.6 2.6 -3.1 c7.1 -8.5 22.2 -4.7 25.3 6.5 0.6 2.1 1.1 11 1.1 19.7 l0 15.7 -5 0 -5 0 0 -15.9 c0 -15.4 -0.1 -16.1 -2.4 -18.8 -3.4 -3.9 -9.5 -3.9 -13.3 0 -2.8 2.7 -2.8 2.8 -3.1 18.7 l-0.3 16 -5 0 -4.9 0 0 -23z"/>
  <path d="M858.8 683.2 c-4.9 -2.9 -5.8 -6.5 -5.8 -22.2 l0 -14.1 -2.7 0.3 c-2.6 0.3 -2.8 0 -3.1 -3.9 -0.3 -4.2 -0.2 -4.3 2.7 -4.3 3.1 0 3.1 0 3.1 -5.5 l0 -5.5 5 0 5 0 0 5.5 0 5.5 4.6 0 4.5 0 -0.3 4.3 -0.3 4.2 -4.2 -0.3 -4.3 -0.3 0 13.4 c0 14.7 0.7 16.7 6.3 16.7 2.5 0 2.7 0.3 2.7 4 l0 4 -5.2 0 c-3.2 0 -6.4 -0.7 -8 -1.8z"/>
  <path d="M879 662 l0 -23 5 0 c4.9 0 5 0.1 5 3 l0 3 2.8 -3.1 c2.4 -2.6 3.6 -3.2 7.3 -3.3 l4.4 -0.1 0.3 4.9 0.3 4.9 -3 -0.6 c-1.6 -0.4 -4.4 -0.1 -6.1 0.4 -5.1 1.8 -6 5 -6 21.9 l0 15 -5 0 -5 0 0 -23z"/>
  <path d="M917.5 683.5 c-1.6 -0.9 -3.8 -2.4 -4.9 -3.3 -5.4 -4.9 -8.1 -17.8 -5.5 -26.9 4.2 -15.1 24.3 -20 35.1 -8.6 4.1 4.3 5.8 9.4 5.8 17.6 0 8.7 -2.5 14.5 -8.3 19.1 -3.4 2.8 -4.7 3.1 -11.5 3.4 -5.6 0.2 -8.5 -0.1 -10.7 -1.3z m14.5 -7.8 c3.7 -1.8 6 -7.2 6 -14 0 -9 -4 -14.7 -10.3 -14.7 -4.6 0 -8.3 2.6 -10.1 7 -5.4 13.5 3.6 27.1 14.4 21.7z"/>
  <path d="M955.7 684.3 c-0.4 -0.3 -0.7 -14.5 -0.7 -31.5 l0 -30.8 5 0 5 0 0 31.5 0 31.5 -4.3 0 c-2.4 0 -4.7 -0.3 -5 -0.7z"/>
  <path d="M1021.7 683.2 c-3.5 -3.8 -0.6 -11.2 4.3 -11.2 2.9 0 6 3.5 6 6.8 0 5.5 -6.8 8.3 -10.3 4.4z"/>
  <path d="M606.5 598.8 c-7 -2.5 -11.4 -7.5 -13 -14.5 l-0.7 -3.3 5.4 0 c5.3 0 5.4 0.1 6.7 3.5 1.6 4.5 5.5 6.5 12.5 6.5 7.2 0 10.7 -2.7 10.9 -8.4 0.2 -5.8 -1.7 -7 -18.8 -11.5 -9.5 -2.5 -14.5 -8.2 -14.5 -16.6 0 -11.9 9 -18.3 24 -17.3 10.7 0.8 16.6 5.5 18.3 14.6 l0.7 3.2 -5.5 0 c-4.9 0 -5.5 -0.2 -5.5 -2 0 -1.2 -1 -3.1 -2.3 -4.4 -6.9 -6.9 -21.5 -1.8 -19.3 6.7 0.9 3.6 3.7 5.3 14.2 8.3 11.2 3.2 15.8 6.3 18 12 3.2 8.4 -0.3 17.7 -8.1 21.8 -4.6 2.4 -18 3.3 -23 1.4z"/>
  <path d="M656.5 598.6 c-7.5 -3.4 -11.8 -11.5 -11.7 -22.2 0.1 -14.5 7.8 -23.3 20.3 -23.4 12.7 0 20.9 8.7 20.9 22.2 l0 3.8 -15.5 0 c-15 0 -15.5 0.1 -15.5 2 0 9.5 12.9 14.3 19.9 7.6 2 -2 3.8 -2.6 6.9 -2.6 4.2 0 4.2 0 3 2.8 -1.7 4 -5.8 8.2 -9.5 9.8 -4.1 1.8 -14.9 1.7 -18.8 0z m19.5 -28.1 c0 -2.5 -2.8 -7.3 -4.9 -8.5 -1.1 -0.5 -3.6 -1 -5.5 -1 -4.2 0 -9.2 4 -10.2 8.3 l-0.6 2.7 10.6 0 c8.9 0 10.6 -0.2 10.6 -1.5z"/>
  <path d="M700.2 598 c-6 -3.7 -7.2 -8.1 -7.2 -27.2 l0 -16.8 4.9 0 5 0 0.3 16.6 c0.3 16 0.4 16.6 2.7 18.5 2.5 2.1 8.1 2.5 11.2 0.9 4 -2.2 4.9 -6.1 4.9 -21.5 l0 -14.5 5 0 5 0 0 22.5 0 22.5 -4 0 c-2.2 0 -4.3 0 -4.7 0 -0.5 0 -0.8 -1.4 -0.8 -3 l0 -2.9 -2.5 2.3 c-1.4 1.3 -3.5 2.9 -4.7 3.5 -3.5 1.8 -11.4 1.3 -15.1 -0.9z"/>
  <path d="M761 576.8 l0 -22.8 5 0 c4.8 0 5 0.1 5 2.8 0.1 2.3 0.2 2.4 1.1 0.9 1.5 -2.5 6.3 -4.7 10.4 -4.7 l3.5 0 0 4.9 0 4.9 -4.3 -0.5 c-3.6 -0.4 -4.8 -0.1 -7.3 2 l-2.9 2.5 -0.5 16.4 -0.5 16.3 -4.8 0 -4.7 0 0 -22.7z"/>
  <path d="M801 598.9 c-3.6 -1.4 -7.8 -5.7 -10.3 -10.4 -3 -5.7 -3 -18.3 0 -24 4 -7.7 10.5 -11.5 19.3 -11.5 11.4 0 17.8 6.7 19.5 20.3 l0.7 5.7 -15.7 0 -15.8 0 0.6 3.8 c0.8 4.7 5.5 9.2 9.7 9.2 4 0 9.9 -2.5 10.6 -4.5 0.4 -1 2 -1.5 5 -1.5 2.4 0 4.4 0.3 4.4 0.8 -0.1 2.9 -5 9 -9 11 -4.8 2.4 -14.3 3 -19 1.1z m19 -27.4 c0 -0.3 -0.6 -2.1 -1.4 -3.9 -3.1 -7.4 -10.6 -8.8 -16.2 -3.2 -1.9 1.9 -3.4 4.3 -3.4 5.5 0 2 0.5 2.1 10.5 2.1 5.8 0 10.5 -0.2 10.5 -0.5z"/>
  <path d="M843.3 598 c-4.3 -1.9 -8.3 -6.9 -8.3 -10.2 0 -1.5 0.9 -1.8 4.4 -1.8 3.6 0 5 0.6 7.4 3 2.3 2.3 4 3 6.9 3 4.7 0 8.3 -2.3 8.3 -5.4 0 -3.3 -1.5 -4.2 -9.7 -6.1 -11.2 -2.5 -16.3 -6.9 -16.3 -14 0 -3.6 3 -8.8 6.3 -10.9 3.1 -2.1 10.4 -3 16.1 -2.2 5.7 0.9 12.6 6.8 12.6 10.8 0 2.3 -0.2 2.5 -4.7 2.1 -3.4 -0.4 -5.1 -1.1 -6.5 -2.9 -3.7 -4.6 -13.8 -2.5 -13.8 2.9 0 2.5 3.7 4.4 12 6.3 5.9 1.3 8.2 2.4 10.9 5.1 3.1 3.1 3.3 3.7 2.9 8.8 -0.5 6.2 -3.1 9.8 -8.5 12.1 -4.7 2 -15 1.7 -20 -0.6z"/>
  <path d="M889.1 598.7 c-1.3 -0.6 -3.4 -2.5 -4.5 -4 -1.9 -2.5 -2.1 -4.5 -2.4 -17.8 l-0.3 -14.9 -3 0 c-2.7 0 -2.9 -0.2 -2.9 -4 0 -3.8 0.2 -4 3 -4 l3 0 0 -6 0 -6 5 0 5 0 0 6 0 6 4.5 0 4.5 0 0 4 0 4 -4.5 0 -4.5 0 0 12.6 c0 6.9 0.5 13.4 1 14.5 0.8 1.3 2.1 1.9 4.5 1.9 3.5 0 3.5 0 3.5 4.5 l0 4.5 -4.7 0 c-2.7 0 -5.9 -0.6 -7.2 -1.3z"/>
  <path d="M913 597.8 c-4.6 -3.1 -7.2 -8.2 -6.6 -13.1 0.9 -7.6 5.7 -11.2 16.2 -12.2 11.9 -1.2 12.4 -1.4 12.4 -4.1 0 -1.4 -1.2 -3.7 -2.6 -5.1 -2.2 -2.2 -3.2 -2.5 -6.7 -2 -2.9 0.4 -4.8 1.4 -6.2 3.1 -1.7 2.1 -2.9 2.6 -6.8 2.6 -5.4 0 -5.9 -1 -2.4 -6 4.2 -6.2 6.9 -7.5 16.2 -7.5 9 0 11.6 1.1 15.9 6.9 1.9 2.5 2.1 4.4 2.4 20.9 l0.3 18.2 -4.8 -0.1 c-4.6 -0.1 -4.8 -0.3 -4.5 -2.9 l0.4 -2.7 -3.7 2.8 c-5.3 4 -14.5 4.6 -19.5 1.2z m19.7 -9.3 c1.5 -1.7 2.3 -3.9 2.3 -6.4 0 -4.2 1 -3.9 -10.7 -2.5 -5.1 0.6 -7.3 2.5 -7.3 6.4 0 4.2 3.3 6.3 9 5.7 3.2 -0.4 5.1 -1.2 6.7 -3.2z"/>
  <path d="M960.7 598.2 c-5.6 -3.5 -6.7 -7.9 -6.7 -27 l0 -17.2 4.8 0 4.7 0 -0.3 13.2 c-0.4 15.3 0.1 19.1 2.9 21.9 2.8 2.8 9 2.6 12.6 -0.5 l2.8 -2.4 0.3 -16.1 0.3 -16.1 5 0 4.9 0 0 22.8 0 22.7 -5.1 -0.4 c-5.1 -0.3 -5.1 -0.3 -4.5 -3.4 l0.6 -3 -2.5 2.7 c-1.3 1.4 -3.6 3.1 -5 3.6 -4.1 1.5 -11.7 1.1 -14.8 -0.8z"/>
  <path d="M1002.4 599.1 c-0.2 -0.2 -0.4 -10.5 -0.4 -22.8 l0 -22.3 5 0 c4.8 0 5 0.1 5 2.8 l0 2.7 1.8 -2.1 c2.4 -3 5.5 -4.4 9.6 -4.4 l3.6 0 0 4.9 0 4.9 -4.3 -0.5 c-3.6 -0.4 -4.8 -0.1 -7.3 2 l-2.9 2.5 -0.5 16.4 -0.5 16.3 -4.3 0 c-2.4 0 -4.6 -0.2 -4.8 -0.4z"/>
  <path d="M1036.3 598 c-5.9 -3.6 -8.4 -10.1 -6.3 -16.4 2 -6.2 6.3 -8.1 23.3 -10.1 4.2 -0.6 4.7 -0.9 4.7 -3.1 0 -1.4 -1.2 -3.7 -2.6 -5.1 -2.2 -2.2 -3.2 -2.5 -6.7 -2 -2.9 0.4 -4.8 1.4 -6.2 3.1 -1.7 2.1 -2.9 2.6 -6.8 2.6 -5.4 0 -5.9 -1 -2.4 -6 4.2 -6.2 6.9 -7.5 16.2 -7.5 9 0 11.6 1.1 15.9 6.9 1.9 2.5 2.1 4.4 2.4 20.6 l0.3 17.8 -4.5 0.4 c-4.5 0.3 -4.6 0.2 -4.6 -2.6 l0 -2.9 -2.2 2 c-3.7 3.3 -6.4 4.3 -12 4.3 -3.5 0 -6.4 -0.7 -8.5 -2z m19.4 -9.5 c1.5 -1.7 2.3 -3.9 2.3 -6.3 l0 -3.8 -4.2 0.4 c-11.1 0.8 -13.8 2.2 -13.8 7.2 0 4.2 3.3 6.3 9 5.7 3.2 -0.4 5.1 -1.2 6.7 -3.2z"/>
  <path d="M1077.5 599 c-0.1 -0.3 -0.3 -10.5 -0.3 -22.7 l-0.1 -22.3 5.6 0 5.5 0 -0.4 3 -0.5 3 2.6 -2.4 c3.9 -3.5 6.5 -4.6 11.4 -4.6 5.4 0 10.5 3.1 12.9 8 1.5 2.9 1.8 6.3 1.8 21 l0 17.5 -4.7 -0.1 -4.8 -0.1 -0.3 -16.6 c-0.2 -16.6 -0.3 -16.6 -2.9 -18.6 -3.5 -2.8 -8.5 -2.7 -12 0.3 l-2.8 2.4 -0.5 16.2 -0.5 16.3 -4.8 0.1 c-2.7 0 -5 -0.1 -5.2 -0.4z"/>
  <path d="M1134.2 598 c-5.1 -3.2 -6.2 -7 -6.2 -22.5 l0 -13.5 -3 0 c-2.8 0 -3 -0.2 -3 -4 0 -3.8 0.2 -4 3 -4 l3 0 0 -6 0 -6 5 0 5 0 0 6 0 6 4.5 0 4.5 0 0 4 0 4 -4.5 0 -4.5 0 0 12.8 c0 14.4 0.7 16.3 5.8 16.4 3.1 0.1 3.2 0.2 3.2 4.5 l0 4.3 -4.7 0 c-3 0 -6 -0.8 -8.1 -2z"/>
  <path d="M1164 598.9 c-12.6 -5 -17.1 -27 -7.8 -38.3 8.3 -10.1 25.5 -10.1 32.2 0.1 2.5 3.9 4.5 10.6 4.6 15.6 l0 2.7 -15.9 0 -16 0 1 3.3 c2.7 9.7 12.8 12.9 19.5 6.2 2.8 -2.8 10.4 -3.6 10.4 -1.2 0 2.9 -5.9 9.4 -9.9 11.1 -4.5 1.8 -14.2 2 -18.1 0.5z m18 -29.5 c0 -1.5 -1.2 -3.8 -2.9 -5.5 -4.9 -4.9 -12.8 -3.5 -16 2.8 -2.5 4.9 -1.9 5.3 8.9 5.3 l10 0 0 -2.6z"/>
  <path d="M824.5 476.8 c-20.8 -2 -35.6 -15.4 -40 -36.3 -6 -28.3 8.8 -53.9 34.3 -59.4 12 -2.5 27.1 -0.6 36.1 4.6 6.1 3.5 12.4 9.5 16 15.2 13.9 21.6 8.2 54.9 -11.5 68 -9.9 6.5 -21.8 9.2 -34.9 7.9z m16.1 -22.7 c8 -3.6 12.4 -12.5 12.4 -25 0 -9.9 -2.1 -16.2 -7.4 -21.6 -11 -11.4 -28.8 -7.1 -34.7 8.3 -1.7 4.8 -2 7.3 -1.7 15.2 0.4 10.1 2.3 15.3 7 19.7 5.7 5.4 16.7 6.9 24.4 3.4z"/>
  <path d="M713.3 475.5 c-7.7 -2.1 -13 -5.1 -19 -10.8 -19.3 -18.2 -20.2 -51.4 -1.9 -70.6 6.6 -6.8 12.9 -10.5 21.7 -12.6 27.8 -6.5 53.2 8.3 59.4 34.7 6.1 26.1 -7.4 51.4 -31.4 58.8 -7.6 2.4 -21 2.6 -28.8 0.5z m23.2 -21.4 c8.4 -3.9 12.9 -12.3 12.9 -24.6 0.1 -10.9 -1.6 -16 -7.3 -21.6 -11.8 -11.9 -30 -7.6 -35.7 8.4 -2 5.7 -2 18.3 0.1 24.6 1.9 5.9 8 12.6 12.7 14 5.4 1.5 13 1.2 17.3 -0.8z"/>
  <path d="M916.5 475.7 c-10.9 -3.6 -19.6 -11.3 -24.2 -21.3 -2.8 -6.1 -5.2 -18.2 -5.2 -25.9 0 -8.3 2.6 -20.5 5.9 -27.1 3.8 -7.9 12.2 -15.6 20 -18.5 12.6 -4.8 28.4 -3.3 38.9 3.6 l5.1 3.4 0 -21 0 -20.9 12.5 0 12.5 0 0 63.5 0 63.5 -12.5 0 -12.5 0 0 -4.5 0 -4.6 -3.7 3 c-6.9 5.5 -12.8 7.5 -23.3 7.8 -6 0.2 -11 -0.2 -13.5 -1z m28.6 -22.3 c13.5 -6.8 17.1 -31.7 6.3 -44.3 -4.5 -5.2 -9.2 -7.2 -16.8 -7.3 -6.9 0 -10.6 1.4 -14.7 5.9 -4.6 4.9 -6.2 9.3 -6.7 17.9 -1.1 20.1 8.8 31.6 25.3 29.6 2.2 -0.3 5.2 -1.1 6.6 -1.8z"/>
  <path d="M1166.5 475.7 c-6.6 -2.2 -9.9 -4.3 -14.2 -9 -11.1 -12 -9 -32.5 4 -40.6 5.9 -3.6 14.5 -5.3 30.7 -6 l15.5 -0.6 0.3 -5 c0.4 -6.8 -2.6 -11.5 -8.6 -13.4 -8 -2.5 -18.3 1 -20.5 6.9 l-1.1 3 -11.8 0 c-13.4 0 -13.1 0.2 -10.2 -8.4 2.1 -6.2 10.1 -14.9 16.7 -18 11.3 -5.3 27.5 -5.9 39.1 -1.6 8.1 3.1 15.6 10.5 18.5 18.3 2 5.5 2.1 7.6 2.1 39.7 l0 34 -12 0 -12 0 0 -4.6 0 -4.7 -2 2.6 c-1.1 1.4 -4.6 3.8 -7.7 5.3 -4.6 2.3 -7.3 2.9 -14.2 3.1 -5.2 0.2 -10.2 -0.2 -12.6 -1z m26 -18.6 c7.4 -3.4 10.5 -8.5 10.5 -17.3 l0 -5.1 -11.2 0.7 c-12.4 0.7 -18.5 2.8 -21.3 7 -2.1 3.2 -1.5 8.8 1.2 11.9 4.3 4.8 13.7 6.1 20.8 2.8z"/>
  <path d="M1258.3 475.5 c-12.3 -3.8 -21.1 -13.2 -22.9 -24.4 l-0.7 -4.1 3.4 0 c1.9 0 7.1 0.3 11.6 0.6 7.8 0.7 8.2 0.8 9.4 3.6 1.9 4.5 7.9 7.1 15.5 6.6 7.1 -0.4 10.8 -2.9 11.9 -7.9 1.4 -6.2 -2.4 -8.8 -17.4 -11.9 -15 -3 -20.8 -5.5 -26.2 -11 -3.5 -3.6 -4.9 -6 -5.9 -10 -2.7 -11.1 1.3 -23.1 9.9 -29.7 13.3 -10.3 37.8 -9.4 50.5 1.9 4.9 4.2 8.9 10.9 9.9 16.6 l0.7 3.2 -11.3 0 -11.3 0 -1.7 -3.5 c-0.9 -1.9 -3.1 -4.4 -4.9 -5.5 -5.9 -3.6 -16.1 -2 -18.8 2.9 -1.6 3.1 -1.2 8.6 0.8 10.3 2.2 2 9.5 4.2 20.2 6.3 20.4 4 28.4 11.4 28.4 26 -0.1 14.8 -9.3 26 -24.6 30.1 -6.6 1.7 -20.9 1.7 -26.5 -0.1z"/>
  <path d="M594 412 l0 -63 42.5 0 42.5 0 0 12 0 12 -29.5 0 -29.6 0 0.3 14.1 0.3 14 25.3 -0.1 25.2 -0.1 0 12.1 0 12 -25.2 0 -25.3 0 0 25 0 25 -13.2 0 -13.3 0 0 -63z"/>
  <path d="M1031 411.5 l0 -63.7 28.8 0.4 c31.8 0.5 34.9 1 47.9 7.4 14 6.8 24.5 20.4 29 37.4 2.1 7.9 2.3 27 0.4 35 -2.2 9.1 -8.3 21 -14 27.2 -7 7.6 -15 12.8 -25.2 16.3 l-8.4 2.9 -29.2 0.4 -29.3 0.4 0 -63.7z m59.1 37.6 c10.7 -4.1 18.3 -13.2 20.9 -25.3 1.8 -8 0.8 -23.8 -1.9 -30.9 -2.9 -7.5 -8.8 -14.1 -15.9 -17.6 -5.3 -2.6 -6.7 -2.8 -20.4 -3.1 l-14.8 -0.4 -0.2 40.2 -0.3 40.3 13.5 -0.6 c10.5 -0.4 14.8 -1 19.1 -2.6z"/>
  <path d="M1316 411.5 l0 -63.5 12.5 0 12.5 0 0 22.5 0 22.6 3.1 -3.5 c1.7 -1.9 5.6 -4.8 8.7 -6.3 5.1 -2.5 6.8 -2.8 15.7 -2.8 9 0 10.6 0.3 15.5 2.8 6.7 3.5 9.4 5.9 12.7 11.4 4.8 8.3 5.3 12.3 5.3 47.6 l0 32.7 -12.4 0 -12.5 0 -0.3 -29.7 c-0.3 -28.2 -0.4 -30.1 -2.5 -34.5 -2.8 -6.1 -7.1 -8.8 -13.8 -8.8 -7.7 0 -12.7 3.5 -16.5 11.5 -1.8 3.7 -2 6.5 -2 32.8 l0 28.7 -13 0 -13 0 0 -63.5z"/>
 </g>
 <g fill="#f2982f">
  <path d="M257.5 681.1 c-1.6 -1 -3.9 -2.8 -5 -4.1 -2 -2.2 -2 -3.8 -2.3 -152.6 -0.2 -144.1 -0.1 -150.4 1.6 -153.6 1.1 -1.9 3.7 -4.2 6.3 -5.5 4.1 -2.1 5.7 -2.3 24.2 -2.3 l19.7 0 0 13.9 c0 7.7 0.4 15.1 1 16.5 0.5 1.4 2.4 3.5 4.2 4.6 3.2 1.9 5.1 2 74.1 2 78.5 0 75.4 0.3 78.3 -6.5 1 -2.4 1.4 -7.5 1.4 -17 l0 -13.5 19.7 0 c18 0 20 0.2 24 2.1 3 1.4 5 3.3 6.3 6 2 3.7 2 6.6 2 151.9 0 162.6 0.4 152.4 -6.1 157.1 l-3.4 2.4 -121.5 0.3 c-116.9 0.2 -121.6 0.1 -124.5 -1.7z m156.7 -14.8 c2.4 -2.1 2.3 -6.8 -0.2 -9.3 -2 -2 -3.3 -2 -61.5 -2 -58.2 0 -59.5 0 -61.5 2 -2.4 2.4 -2.6 7.2 -0.4 9.4 1.4 1.4 8.3 1.6 61.6 1.6 54.6 0 60.3 -0.2 62 -1.7z m58 -26 c2.7 -2.4 2.3 -6.8 -0.8 -9.2 -2.7 -2.1 -3.2 -2.1 -90.5 -2.1 -86.6 0 -87.9 0 -89.9 2 -2.4 2.4 -2.6 6.7 -0.3 9.2 1.5 1.7 5.7 1.8 90.6 1.8 81.5 0 89.2 -0.1 90.9 -1.7z m-32.6 -35.7 l3.4 -3.4 0 -33.1 c0 -30.9 0.1 -33.1 1.8 -33.1 2.8 0 12.3 -4.8 17.8 -9 6.6 -4.9 12.8 -14.3 15.5 -23.2 1.8 -5.7 2.1 -8.7 1.7 -16.3 -0.4 -8.1 -1 -10.4 -4 -16.7 -6.1 -12.7 -15.4 -21 -27.9 -24.9 -3.3 -1 -8.5 -1.9 -11.4 -1.9 -5.3 0 -5.3 0 -8 -4.6 -1.5 -2.5 -5.3 -7.2 -8.5 -10.4 -6.9 -6.9 -18.9 -13.2 -28.8 -15.1 -13.7 -2.6 -30.5 0.9 -41.9 8.7 -6.3 4.3 -13.6 12.2 -16.3 17.5 l-1.9 3.6 -8 0.6 c-26.5 1.8 -46.2 28.3 -40.7 54.7 2.2 10.1 5.6 16.7 12.5 23.9 5.4 5.6 15.3 11.6 22.1 13.4 2 0.5 2 1.1 2 33.2 l0 32.7 3.4 3.4 3.4 3.4 55.2 0 55.2 0 3.4 -3.4z"/>
  <path d="M347.2 589.3 l-8.3 -0.4 0.3 -3.7 0.3 -3.7 41.5 0 41.5 0 0 4 0 4 -33.5 0.1 c-18.4 0 -37.2 -0.1 -41.8 -0.3z"/>
  <path d="M340.3 560.3 c-1 -0.3 -1.3 -5.1 -1.3 -19 l0 -18.5 -2.9 -2.9 c-2.4 -2.4 -3.8 -2.9 -7.5 -2.9 -14.7 0 -27.1 -12.9 -26.9 -27.9 0.1 -10.9 5.2 -19.3 14.7 -24.4 3.4 -1.8 5.8 -2.2 13.6 -2.3 5.2 0 10.5 -0.4 11.8 -0.8 1.5 -0.5 3.4 -3.2 5.7 -8.1 7.4 -15.5 23.4 -24.5 38.8 -21.6 12.6 2.3 21.8 9.3 27.2 20.6 2 4 4.3 7.9 5.2 8.6 1.1 1 4 1.3 9.6 1.1 10.2 -0.3 16.9 1.6 22.6 6.5 11.5 9.8 12.3 28.7 1.8 39.6 -5.3 5.4 -10.5 7.8 -18.4 8.7 -10.6 1 -10.7 1.3 -11.3 24.3 l-0.5 19.2 -40.5 0.2 c-22.3 0.1 -41.1 -0.1 -41.7 -0.4z"/>
  <path d="M322.7 379.3 c-0.4 -0.3 -0.7 -4.2 -0.7 -8.5 l0 -7.8 7.9 0 c6.9 0 8.3 -0.3 10.7 -2.3 2.3 -2 2.9 -3.5 3.5 -9.7 1.5 -13.8 10 -25.6 21.6 -30.1 24.6 -9.4 49.8 5 52.2 29.7 0.6 6.7 1.1 8 3.5 10 2.4 2.1 3.7 2.4 11.2 2.4 l8.5 0 -0.3 8.3 -0.3 8.2 -58.6 0.3 c-32.2 0.1 -58.9 -0.1 -59.2 -0.5z"/>
 </g>
</svg>